<?xml version="1.0" encoding="iso-8859-1"?>
<!-- Generator: Adobe Illustrator 19.0.0, SVG Export Plug-In . SVG Version: 6.00 Build 0)  -->
<svg version="1.1" id="Layer_1" xmlns="http://www.w3.org/2000/svg" xmlns:xlink="http://www.w3.org/1999/xlink" x="0px" y="0px"
	 viewBox="0 0 454 454" style="enable-background:new 0 0 454 454;" xml:space="preserve">
<g>
	<polygon style="fill:#666666;" points="269.53,412.088 184.47,412.088 195.15,364.088 198.49,349.088 255.5,349.088 
		258.84,364.088 	"/>
	<path style="fill:#B3B3B3;" d="M454,51.608v280.28c0,9.5-7.7,17.2-17.2,17.2H255.5h-57.01H17.2c-9.5,0-17.2-7.7-17.2-17.2V51.608
		c0-9.5,7.7-17.2,17.2-17.2h419.6C446.3,34.408,454,42.108,454,51.608z M431,326.088V91.058v-33.65H23v33.65v235.03H431z"/>
	<path style="fill:#4D4D4D;" d="M255.5,349.088h-57.01l-3.34,15h63.69L255.5,349.088z"/>
	<rect x="23" y="57.408" style="fill:#88C5FC;" width="408" height="33.65"/>
	<rect x="23" y="91.058" style="fill:#E6E6E6;" width="408" height="235.03"/>
	<rect x="145.603" y="404.592" style="fill:#B3B3B3;" width="162.788" height="15"/>
	<path style="opacity:0.23;fill:#F2F2F2;enable-background:new    ;" d="M119.68,34.408l-22.56,43.35l-11.83,22.74l-25.96,49.88
		l-12.39,23.82l-23.94,46l-23,44.2V51.608c0-9.5,7.7-17.2,17.2-17.2H119.68z"/>
	<g>
		<path style="fill:#D38176;" d="M227,171.103c-4.142,0-7.5-3.358-7.5-7.5v-24.054c0-4.142,3.358-7.5,7.5-7.5s7.5,3.358,7.5,7.5
			v24.054C234.499,167.745,231.142,171.103,227,171.103z"/>
		<path style="fill:#EDB2B2;" d="M227,283.542c-4.142,0-7.5-3.358-7.5-7.5v-24.054c0-4.142,3.358-7.5,7.5-7.5s7.5,3.358,7.5,7.5
			v24.054C234.499,280.184,231.142,283.542,227,283.542z"/>
		<path style="fill:#E5A5A3;" d="M261.13,274.401c-2.592,0-5.112-1.345-6.502-3.751l-12.027-20.832
			c-2.071-3.587-0.842-8.174,2.745-10.245c3.585-2.071,8.174-0.842,10.245,2.745l12.027,20.832
			c2.071,3.587,0.842,8.174-2.745,10.245C263.693,274.077,262.403,274.401,261.13,274.401z"/>
		<path style="fill:#EACECE;" d="M188.721,193.201c-1.272,0-2.562-0.324-3.743-1.006l-20.831-12.027
			c-3.587-2.071-4.816-6.658-2.745-10.245c2.071-3.587,6.657-4.817,10.245-2.745l20.831,12.027
			c3.587,2.071,4.816,6.658,2.745,10.245C193.834,191.855,191.313,193.201,188.721,193.201z"/>
		<path style="fill:#E09894;" d="M286.096,249.421c-1.272,0-2.562-0.324-3.743-1.006l-20.831-12.027
			c-3.587-2.071-4.816-6.658-2.745-10.245c2.07-3.587,6.656-4.817,10.245-2.745l20.831,12.027c3.587,2.071,4.816,6.658,2.745,10.245
			C291.209,248.075,288.688,249.421,286.096,249.421z"/>
		<path style="fill:#EFD3D3;" d="M182.807,215.296h-24.054c-4.142,0-7.5-3.358-7.5-7.5s3.358-7.5,7.5-7.5h24.054
			c4.142,0,7.5,3.358,7.5,7.5S186.95,215.296,182.807,215.296z"/>
		<path style="fill:#D68D85;" d="M295.246,215.296h-24.054c-4.143,0-7.5-3.358-7.5-7.5s3.357-7.5,7.5-7.5h24.054
			c4.143,0,7.5,3.358,7.5,7.5S299.389,215.296,295.246,215.296z"/>
		<path style="fill:#EDC8C8;" d="M167.904,249.421c-2.592,0-5.113-1.345-6.502-3.751c-2.071-3.587-0.842-8.174,2.745-10.245
			l20.831-12.027c3.587-2.072,8.174-0.843,10.245,2.745c2.071,3.587,0.842,8.174-2.745,10.245l-20.831,12.027
			C170.466,249.097,169.176,249.421,167.904,249.421z"/>
		<path style="fill:#CC8681;" d="M265.279,193.201c-2.592,0-5.112-1.345-6.502-3.751c-2.071-3.587-0.842-8.174,2.745-10.245
			l20.831-12.027c3.586-2.071,8.175-0.842,10.245,2.745c2.071,3.587,0.842,8.174-2.745,10.245l-20.831,12.027
			C267.841,192.877,266.551,193.201,265.279,193.201z"/>
		<path style="fill:#EDBCBC;" d="M192.87,274.401c-1.272,0-2.562-0.324-3.743-1.006c-3.587-2.071-4.816-6.658-2.745-10.245
			l12.027-20.832c2.071-3.587,6.657-4.817,10.245-2.745c3.587,2.071,4.816,6.658,2.745,10.245l-12.027,20.832
			C197.983,273.055,195.462,274.401,192.87,274.401z"/>
		<path style="fill:#CC8681;" d="M249.089,177.025c-1.272,0-2.563-0.324-3.743-1.006c-3.587-2.071-4.816-6.658-2.745-10.245
			l12.027-20.831c2.069-3.587,6.659-4.817,10.245-2.745c3.587,2.071,4.816,6.658,2.745,10.245l-12.027,20.831
			C254.202,175.68,251.681,177.025,249.089,177.025z"/>
	</g>
	<path style="opacity:0.23;fill:#F2F2F2;enable-background:new    ;" d="M454,51.608v280.28c0,9.5-7.7,17.2-17.2,17.2H194.887
		l163.75-314.68H436.8C446.3,34.408,454,42.108,454,51.608z"/>
</g>
<g>
</g>
<g>
</g>
<g>
</g>
<g>
</g>
<g>
</g>
<g>
</g>
<g>
</g>
<g>
</g>
<g>
</g>
<g>
</g>
<g>
</g>
<g>
</g>
<g>
</g>
<g>
</g>
<g>
</g>
</svg>
